<?xml version="1.0" encoding="UTF-8" standalone="no"?>
<!DOCTYPE svg PUBLIC "-//W3C//DTD SVG 1.1//EN"
 "http://www.w3.org/Graphics/SVG/1.1/DTD/svg11.dtd">
<!-- Generated by graphviz version 2.44.1 (20200629.0846)
 -->
<!-- Title: g Pages: 1 -->
<svg width="380pt" height="472pt"
 viewBox="0.00 0.00 380.00 472.20" xmlns="http://www.w3.org/2000/svg" xmlns:xlink="http://www.w3.org/1999/xlink">
<g id="graph0" class="graph" transform="scale(1 1) rotate(0) translate(4 468.2)">
<title>g</title>
<polygon fill="white" stroke="transparent" points="-4,4 -4,-468.2 376,-468.2 376,4 -4,4"/>
<g id="clust1" class="cluster">
<title>cluster_15833472</title>
<polygon fill="#ececec" stroke="black" points="8,-8 8,-456.2 364,-456.2 364,-8 8,-8"/>
<text text-anchor="middle" x="38.16" y="-439.6" font-family="Times New Roman,serif" font-size="14.00">blueocn</text>
</g>
<!-- Command15833472 -->
<g id="node1" class="node">
<title>Command15833472</title>
<polygon fill="#f1e5fd" stroke="transparent" points="278,-320.6 196,-320.6 196,-270.6 278,-270.6 278,-320.6"/>
<text text-anchor="start" x="200.84" y="-303" font-family="Times New Roman,serif" font-size="14.00">(I)Command</text>
<text text-anchor="start" x="201" y="-279" font-family="Times New Roman,serif" font-size="14.00">+ execute()</text>
<polygon fill="black" stroke="black" points="196,-295.6 196,-295.6 278,-295.6 278,-295.6 196,-295.6"/>
<polygon fill="none" stroke="black" points="196,-270.6 196,-320.6 278,-320.6 278,-270.6 196,-270.6"/>
</g>
<!-- placeOrderCommand15833472 -->
<g id="node5" class="node">
<title>placeOrderCommand15833472</title>
<polygon fill="#ffffff" stroke="transparent" points="174.5,-233.6 25.5,-233.6 25.5,-159.6 174.5,-159.6 174.5,-233.6"/>
<text text-anchor="start" x="30.92" y="-216" font-family="Times New Roman,serif" font-size="14.00">(C)placeOrderCommand</text>
<text text-anchor="start" x="31" y="-192" font-family="Times New Roman,serif" font-size="14.00">&#45; &#160;&#160;jacket: Jacket [0..1]</text>
<text text-anchor="start" x="31" y="-168" font-family="Times New Roman,serif" font-size="14.00">+ execute()</text>
<polygon fill="black" stroke="black" points="26,-208.6 26,-208.6 175,-208.6 175,-208.6 26,-208.6"/>
<polygon fill="black" stroke="black" points="26,-184.6 26,-184.6 175,-184.6 175,-184.6 26,-184.6"/>
<polygon fill="none" stroke="black" points="25.5,-159.6 25.5,-233.6 174.5,-233.6 174.5,-159.6 25.5,-159.6"/>
</g>
<!-- Command15833472&#45;&gt;placeOrderCommand15833472 -->
<g id="edge1" class="edge">
<title>Command15833472&#45;&gt;placeOrderCommand15833472</title>
<path fill="none" stroke="black" d="M194.43,-264.46C180.63,-254.69 165.19,-243.75 150.85,-233.6"/>
<polygon fill="none" stroke="black" points="192.6,-267.45 202.78,-270.37 196.64,-261.74 192.6,-267.45"/>
</g>
<!-- returnOrderCommand15833472 -->
<g id="node6" class="node">
<title>returnOrderCommand15833472</title>
<polygon fill="#ffffff" stroke="transparent" points="345.5,-233.6 192.5,-233.6 192.5,-159.6 345.5,-159.6 345.5,-233.6"/>
<text text-anchor="start" x="197.97" y="-216" font-family="Times New Roman,serif" font-size="14.00">(C)returnOrderCommand</text>
<text text-anchor="start" x="198" y="-192" font-family="Times New Roman,serif" font-size="14.00">&#45; &#160;&#160;jacket: Jacket [0..1]</text>
<text text-anchor="start" x="198" y="-168" font-family="Times New Roman,serif" font-size="14.00">+ execute()</text>
<polygon fill="black" stroke="black" points="193,-208.6 193,-208.6 346,-208.6 346,-208.6 193,-208.6"/>
<polygon fill="black" stroke="black" points="193,-184.6 193,-184.6 346,-184.6 346,-184.6 193,-184.6"/>
<polygon fill="none" stroke="black" points="192.5,-159.6 192.5,-233.6 345.5,-233.6 345.5,-159.6 192.5,-159.6"/>
</g>
<!-- Command15833472&#45;&gt;returnOrderCommand15833472 -->
<g id="edge2" class="edge">
<title>Command15833472&#45;&gt;returnOrderCommand15833472</title>
<path fill="none" stroke="black" d="M248.29,-260.39C251.13,-251.78 254.18,-242.51 257.06,-233.81"/>
<polygon fill="none" stroke="black" points="244.88,-259.53 245.07,-270.12 251.53,-261.72 244.88,-259.53"/>
</g>
<!-- Jacket15833472 -->
<g id="node2" class="node">
<title>Jacket15833472</title>
<polygon fill="#ffffff" stroke="transparent" points="204,-90 108,-90 108,-16 204,-16 204,-90"/>
<text text-anchor="start" x="113" y="-72.4" font-family="Times New Roman,serif" font-size="14.00">(C)Jacket</text>
<text text-anchor="start" x="113" y="-48.4" font-family="Times New Roman,serif" font-size="14.00">+ placeOrder()</text>
<text text-anchor="start" x="112.61" y="-24.4" font-family="Times New Roman,serif" font-size="14.00">+ returnOrder()</text>
<polygon fill="black" stroke="black" points="108,-65 108,-65 204,-65 204,-65 108,-65"/>
<polygon fill="none" stroke="black" points="108,-16 108,-90 204,-90 204,-16 108,-16"/>
</g>
<!-- OrderHandler15833472 -->
<g id="node3" class="node">
<title>OrderHandler15833472</title>
<polygon fill="#ffffff" stroke="transparent" points="355.5,-423.4 166.5,-423.4 166.5,-373.4 355.5,-373.4 355.5,-423.4"/>
<text text-anchor="start" x="172" y="-405.8" font-family="Times New Roman,serif" font-size="14.00">(C)OrderHandler</text>
<text text-anchor="start" x="171.62" y="-381.8" font-family="Times New Roman,serif" font-size="14.00">+ invoke(command: Command)</text>
<polygon fill="black" stroke="black" points="167,-398.4 167,-398.4 356,-398.4 356,-398.4 167,-398.4"/>
<polygon fill="none" stroke="black" points="166.5,-373.4 166.5,-423.4 355.5,-423.4 355.5,-373.4 166.5,-373.4"/>
</g>
<!-- OrderHandler15833472&#45;&gt;Command15833472 -->
<g id="edge3" class="edge">
<title>OrderHandler15833472&#45;&gt;Command15833472</title>
<path fill="none" stroke="black" d="M255.25,-373.26C252.22,-360.51 248.44,-344.65 245.11,-330.67"/>
<polygon fill="black" stroke="black" points="248.51,-329.81 242.78,-320.9 241.7,-331.44 248.51,-329.81"/>
<text text-anchor="middle" x="309.53" y="-342.8" font-family="Times New Roman,serif" font-size="14.00">invoke() &#45;&gt; execute()</text>
</g>
<!-- SalesOrderClient15833472 -->
<g id="node4" class="node">
<title>SalesOrderClient15833472</title>
<polygon fill="#ffffff" stroke="transparent" points="148,-423.4 16,-423.4 16,-373.4 148,-373.4 148,-423.4"/>
<text text-anchor="start" x="21" y="-405.8" font-family="Times New Roman,serif" font-size="14.00">(C)SalesOrderClient</text>
<text text-anchor="start" x="20.52" y="-381.8" font-family="Times New Roman,serif" font-size="14.00">+ main(args: String[])</text>
<polygon fill="black" stroke="black" points="16,-398.4 16,-398.4 148,-398.4 148,-398.4 16,-398.4"/>
<polygon fill="none" stroke="black" points="16,-373.4 16,-423.4 148,-423.4 148,-373.4 16,-373.4"/>
</g>
<!-- placeOrderCommand15833472&#45;&gt;Jacket15833472 -->
<g id="edge4" class="edge">
<title>placeOrderCommand15833472&#45;&gt;Jacket15833472</title>
<path fill="none" stroke="black" d="M114.28,-159.5C121.48,-141.28 130.3,-118.98 137.97,-99.58"/>
<polygon fill="black" stroke="black" points="141.33,-100.62 141.75,-90.03 134.82,-98.04 141.33,-100.62"/>
<text text-anchor="middle" x="149.71" y="-129" font-family="Times New Roman,serif" font-size="14.00">jacket</text>
<text text-anchor="middle" x="149.71" y="-112.2" font-family="Times New Roman,serif" font-size="14.00">[0..1]</text>
</g>
<!-- returnOrderCommand15833472&#45;&gt;Jacket15833472 -->
<g id="edge5" class="edge">
<title>returnOrderCommand15833472&#45;&gt;Jacket15833472</title>
<path fill="none" stroke="black" d="M240.19,-159.5C225.25,-140.78 206.88,-117.75 191.11,-97.99"/>
<polygon fill="black" stroke="black" points="193.73,-95.67 184.75,-90.03 188.26,-100.03 193.73,-95.67"/>
<text text-anchor="middle" x="238.71" y="-129" font-family="Times New Roman,serif" font-size="14.00">jacket</text>
<text text-anchor="middle" x="238.71" y="-112.2" font-family="Times New Roman,serif" font-size="14.00">[0..1]</text>
</g>
</g>
</svg>
